<?xml version="1.0" encoding="utf-8"?>
<!-- Generator: Adobe Illustrator 19.0.1, SVG Export Plug-In . SVG Version: 6.00 Build 0)  -->
<svg version="1.1" id="Layer_1" xmlns="http://www.w3.org/2000/svg" xmlns:xlink="http://www.w3.org/1999/xlink" x="0px" y="0px"
	 viewBox="0 0 380 159.6" enable-background="new 0 0 380 159.6" xml:space="preserve">
<g>
	<path id="Rectangle-path_1_" fill="#04F799" d="M80.5,0l80.5,79.8l-80.5,79.8L0,79.8L80.5,0L80.5,0z"/>
	<ellipse id="Oval_9_" fill="#FFFFFF" cx="59.7" cy="59.8" rx="5.8" ry="5.8"/>
	<ellipse id="Oval_10_" fill="#FFFFFF" cx="79.5" cy="79.8" rx="5.8" ry="5.8"/>
	<ellipse id="Oval_11_" fill="#FFFFFF" cx="99.3" cy="99.7" rx="5.8" ry="5.8"/>
	<ellipse id="Oval_12_" fill="#FFFFFF" cx="99.3" cy="59.8" rx="5.8" ry="5.8"/>
	<ellipse id="Oval_13_" fill="#FFFFFF" cx="59.7" cy="99.7" rx="5.8" ry="5.8"/>
	<ellipse id="Oval_14_" fill="#FFFFFF" cx="119.2" cy="79.8" rx="5.8" ry="5.8"/>
	<ellipse id="Oval_15_" fill="#FFFFFF" cx="79.5" cy="119.8" rx="5.8" ry="5.8"/>
	<ellipse id="Oval_16_" fill="#FFFFFF" cx="79.5" cy="39.9" rx="5.8" ry="5.8"/>
	<ellipse id="Oval_17_" fill="#FFFFFF" cx="39.6" cy="79.8" rx="5.8" ry="5.8"/>
</g>
<g>
	<path fill-rule="evenodd" clip-rule="evenodd" fill="#263238" d="M220.9,46.9c0-3.1-1.4-4.9-4.9-4.9c-3.5,0-4.9,1.7-4.9,4.9v55.7
		c0,4.7-2.5,5.2-6.6,5.2h-5.3c-5.7,0-6.9-1.6-6.9-7.2V88c0-3.1-1.4-4.9-4.9-4.9c-3.5,0-4.9,1.7-4.9,4.9v14.1c0,3.9,0.6,6.6,3,9.8
		c3.5,4.7,8.2,5.6,13.6,5.6h5.6c6,0,10.9-1.7,14.2-7.2c1.8-3.3,1.8-5.6,1.8-9.3V46.9L220.9,46.9z"/>
	<path fill-rule="evenodd" clip-rule="evenodd" fill="#263238" d="M300.4,112.7l-18.6-65.4c-0.7-2.5-1.8-4.9-5-4.9
		c-3.1,0-4.2,2.3-4.9,4.9l-18.9,65.4c-0.7,2.3,1.9,4.8,4.6,4.8c3,0,4.5-2.5,5.2-4.8l3.7-11.6h20.6l3.6,11.6c0.7,2.3,2.2,4.8,5.2,4.8
		C298.4,117.6,301,115.1,300.4,112.7z M269.1,91.5l7.5-26.2h0.2l7.4,26.2H269.1z"/>
	<path fill-rule="evenodd" clip-rule="evenodd" fill="#263238" d="M356,59.1L344.2,42H332v70.7c0,3.1,1.4,4.9,4.9,4.9
		s4.9-1.7,4.9-4.9V55.4h0.2l9.2,13.7v1.6c0,3,1.4,5.8,4.9,5.8c3.7,0,4.9-2.8,4.9-5.8v-1.6l9.2-13.7h0.2v57.3c0,3.1,1.4,4.9,4.9,4.9
		c3.5,0,4.9-1.7,4.9-4.9V42h-12.1L356,59.1L356,59.1z"/>
</g>
<g>
</g>
<g>
</g>
<g>
</g>
<g>
</g>
<g>
</g>
<g>
</g>
<g>
</g>
<g>
</g>
<g>
</g>
<g>
</g>
<g>
</g>
<g>
</g>
<g>
</g>
<g>
</g>
<g>
</g>
</svg>
